<svg width="110" height="36" viewBox="0 0 110 36" fill="none" xmlns="http://www.w3.org/2000/svg" focusable="false">
<title>Busy Beauty Co</title>
<path d="M0 28.7417V0H6.03701V10.825C7.03624 8.95143 9.49267 7.89668 12.0324 7.89668C17.2783 7.89668 21.9136 12.0463 21.9136 18.6106C21.9136 25.0362 17.2783 29.1858 12.0324 29.1858C9.49267 29.1858 7.05012 28.0894 6.03701 26.2159V28.7556H0V28.7417ZM10.8944 23.4125C13.4757 23.4125 15.613 21.4834 15.613 18.4719C15.613 15.5436 13.4757 13.6145 10.8944 13.6145C8.3963 13.6145 6.17579 15.4048 6.17579 18.4719C6.16191 21.4002 8.35466 23.4125 10.8944 23.4125Z" fill="#241F21"></path>
<path d="M37.8459 8.3269H43.9245V28.7417H37.8459V25.9522C36.7495 28.0062 34.529 29.1858 32.5583 29.1858C27.9646 29.1858 24.4673 26.3408 24.4673 20.5258V8.3269H30.5459V19.2213C30.5459 22.4549 32.7803 23.2876 34.182 23.2876C36.0556 23.2876 37.8597 22.2328 37.8597 19.138V8.3269H37.8459Z" fill="#241F21"></path>
<path d="M53.2923 20.3593C47.172 18.6939 47.1304 15.5991 47.172 13.7117C47.2137 10.7001 50.8498 7.8967 55.1242 7.8967C59.1905 7.8967 63.4789 9.68698 63.5205 14.6692H57.7888C57.7472 13.1426 56.4288 12.879 55.4712 12.879C54.1528 12.879 53.2784 13.4896 53.334 14.4056C53.3756 15.0162 53.903 15.6268 55.1242 15.9322L58.5799 16.8481C63.5205 18.2082 64.1312 21.4834 64.1312 22.788C64.1312 27.118 59.5791 29.1719 55.3046 29.1719C51.1551 29.1719 46.8251 26.6739 46.7834 22.1357H52.4735C52.5151 23.3154 53.8336 24.495 55.4851 24.495C56.8451 24.4534 57.9831 23.8427 57.9831 22.788C57.9831 21.9137 57.4558 21.4279 55.9708 21.0393L53.2923 20.3593Z" fill="#241F21"></path>
<path d="M73.818 36H67.3924L71.6114 26.6461L63.7424 8.3269H70.2097L74.7201 19.9152L79.2582 8.3269H85.7255L73.818 36Z" fill="#241F21"></path>
<path d="M94.4411 14.3501C95.1489 12.9345 96.273 11.6716 95.6624 9.81189C95.2044 10.1311 94.7603 10.3393 94.4411 10.6862C92.623 12.643 91.0548 14.7664 90.1805 17.3477C89.889 18.1943 89.8751 18.9437 90.4858 19.6654C90.8189 20.054 91.1936 20.2483 91.6654 20.054C92.3594 19.7764 93.0255 19.4433 93.7055 19.138C94.3162 18.8605 94.9268 18.5829 95.5374 18.3053C95.9538 18.1249 96.3424 18.1804 96.6755 18.5274C96.6755 18.5968 96.7032 18.7078 96.6755 18.7356C95.1905 19.9985 93.6778 21.2198 91.6377 21.4418C89.9862 21.6222 88.4318 20.1789 88.3763 18.4996C88.3208 17.0841 88.8898 15.8489 89.5282 14.6692C90.7495 12.3793 92.3593 10.367 94.219 8.56285C95.1072 7.7024 96.495 8.00772 97.0224 9.13186C97.7441 10.6585 97.522 12.1157 96.7587 13.5451C96.6199 13.8088 96.4395 14.0447 96.2869 14.3084C95.7317 15.2244 95.2321 15.2521 94.4411 14.3501Z" fill="#241F21"></path>
<path d="M98.2157 16.6677C97.5912 14.2251 98.41 12.2683 100.075 10.6446C100.964 9.77023 101.893 8.79875 103.42 9.0902C103.476 8.93754 103.531 8.75712 103.587 8.59058C104.544 8.49343 104.544 8.49343 106.001 10.3115C106.154 11.2691 106.376 12.2128 106.432 13.1704C106.529 14.9884 105.974 16.5844 104.461 17.6947C103.143 18.6523 101.644 18.9159 100.075 18.4163C99.6452 18.2776 99.2566 17.9167 98.9097 17.5836C98.6321 17.3061 98.4239 16.9314 98.2157 16.6677ZM104.267 9.83962C103.892 10.1033 103.628 10.3947 103.295 10.5058C101.741 11.0609 100.797 12.2128 100.145 13.6561C99.8117 14.3778 99.5897 15.1272 99.7701 15.946C99.9228 16.6399 100.617 17.4449 101.158 17.3477C101.88 17.2228 102.657 17.0424 103.254 16.6399C105.363 15.2521 105.127 11.4217 104.392 9.95064C104.364 9.88125 104.281 9.8535 104.267 9.83962Z" fill="#241F21"></path>
<path d="M88.8759 26.2714C88.5151 25.9383 88.2098 25.633 87.7795 25.2305C88.2236 24.9946 88.4734 24.8142 88.7649 24.7032C90.5968 24.0231 92.4149 23.2876 94.2745 22.7047C97.8829 21.5806 101.505 20.512 105.155 19.5127C106.335 19.1935 107.598 19.138 108.833 18.9992C109.055 18.9715 109.305 19.1658 109.527 19.249C109.527 19.3323 109.541 19.4295 109.541 19.5127C109.18 19.6793 108.833 19.9291 108.458 20.0123C106.973 20.3732 105.544 20.8867 104.045 21.2475C102.019 21.7471 100.048 22.4965 98.0494 23.1627C96.0509 23.8288 94.0664 24.495 92.0679 25.175C91.0409 25.4942 90.0417 25.8689 88.8759 26.2714Z" fill="#241F21"></path>
</svg>