<svg width="99" height="25" viewBox="0 0 99 25" fill="none" xmlns="http://www.w3.org/2000/svg">
<path d="M7.11562 5.57881L12.7622 4.34887C13.1798 4.2579 13.6024 4.48061 13.7634 4.87658L16.1113 10.6503L12.0874 18.4426L10.5255 17.636L14.1781 10.5628L12.4136 6.22389L8.24818 7.13122L2.60386 16.8827L1.08245 16.0021L7.11562 5.57881Z" fill="url(#paint0_linear_3748_113600)"></path>
<path d="M5.71755 17.9379L3.85426 21.2223L2.32528 20.3549L4.18858 17.0705L5.71755 17.9379Z" fill="url(#paint1_linear_3748_113600)"></path>
<path d="M8.9589 17.9515L7.09561 21.2359L5.56663 20.3685L7.42993 17.0841L8.9589 17.9515Z" fill="url(#paint2_linear_3748_113600)"></path>
<path d="M10.7039 11.6938C11.4944 11.5216 11.9956 10.7412 11.8235 9.95066C11.6513 9.16015 10.8708 8.65891 10.0803 8.83109C9.28983 9.00328 8.78858 9.7837 8.96077 10.5742C9.13296 11.3647 9.91338 11.866 10.7039 11.6938Z" fill="url(#paint3_linear_3748_113600)"></path>
<path d="M25.5766 5.68213L18.5615 19.9987H22.3861L23.4905 17.5853H28.624L29.033 19.9987H32.8371L29.8511 5.68213H25.5766ZM27.2537 8.91358L28.2763 14.8447H24.5949L27.2537 8.91358ZM37.8922 8.2182C39.0375 8.2182 40.0397 7.40012 40.2033 6.25479C40.3464 5.17083 39.5897 4.33229 38.4444 4.33229C37.3195 4.33229 36.2969 5.17083 36.1537 6.25479C35.9901 7.40012 36.7673 8.2182 37.8922 8.2182ZM39.5897 9.1181H35.9288L34.3949 19.9987H38.0763L39.5897 9.1181ZM48.8568 9.01584C48.6114 8.95448 48.325 8.91358 48.0182 8.91358C46.8934 8.91358 45.8299 9.54759 45.1345 10.6929L45.1549 9.1181H41.7394L40.2055 19.9987H43.8869L44.5618 15.0083C44.8073 13.229 45.9321 12.2064 47.5887 12.2064C47.9364 12.2064 48.1819 12.2473 48.3864 12.3086L48.8568 9.01584ZM53.2115 12.1859C53.2933 11.6746 53.866 11.3269 54.6022 11.3269C55.4408 11.3269 55.993 11.7155 55.9725 12.3291H59.2653C59.3881 10.2021 57.7314 8.87267 54.9499 8.87267C52.0866 8.87267 50.021 10.3043 49.7346 12.4723C49.4892 14.2107 50.5323 15.2742 52.9252 15.7242L53.6205 15.8469C55.0522 16.1332 55.4203 16.3582 55.359 16.8695C55.2772 17.3808 54.7045 17.7489 53.9273 17.7489C52.9661 17.7489 52.3321 17.2785 52.3934 16.6445H48.8552C48.7734 18.8942 50.4914 20.2441 53.4978 20.2441C56.6066 20.2441 58.7131 18.8124 59.0608 16.4195C59.3062 14.6811 58.4268 13.863 55.7476 13.3517L54.9908 13.1881C53.5592 12.9018 53.1501 12.6768 53.2115 12.1859ZM68.8092 8.87267C67.3571 8.87267 66.1504 9.50669 65.23 10.6725L66.0277 5.06857H62.3667L60.2601 19.9987H63.9415L64.7596 14.1084C64.9846 12.5745 65.6595 11.8178 66.7435 11.8178C67.7456 11.8178 68.1751 12.4109 67.9911 13.7198L67.1321 19.9987H70.793L71.8156 12.7586C72.1429 10.3043 71.0589 8.87267 68.8092 8.87267ZM79.8358 8.87267C76.4407 8.87267 73.7819 11.2042 73.3115 14.5584C72.8411 17.9125 74.825 20.2441 78.2405 20.2441C81.6151 20.2441 84.2534 17.9125 84.7238 14.5584C85.1942 11.2042 83.2308 8.87267 79.8358 8.87267ZM78.6086 17.483C77.3406 17.483 76.727 16.3582 76.9725 14.5584C77.2179 12.7381 78.1587 11.6337 79.4267 11.6337C80.6743 11.6337 81.3083 12.7381 81.0629 14.5584C80.8175 16.3582 79.8562 17.483 78.6086 17.483ZM88.9351 23.68L89.6713 18.4238C90.1826 19.6305 91.4098 20.2032 92.7596 20.2032C95.7661 20.2032 97.6477 17.5239 98.0772 14.5379C98.5067 11.5315 97.4227 8.87267 94.3549 8.87267C93.005 8.87267 91.5938 9.42488 90.7144 10.652L90.7349 9.1181H87.3193L85.2741 23.68H88.9351ZM90.1417 14.5379C90.3872 12.7381 91.3689 11.6133 92.6778 11.6133C93.9458 11.6133 94.6003 12.7586 94.3549 14.5379C94.1095 16.3173 93.1278 17.483 91.8393 17.483C90.5303 17.483 89.8759 16.3377 90.1417 14.5379Z" fill="#222629"></path>
<defs>
<linearGradient id="paint0_linear_3748_113600" x1="12.5599" y1="6.05897" x2="4.48568" y2="19.6434" gradientUnits="userSpaceOnUse">
<stop stop-color="#CB35FF"></stop>
<stop offset="0.299315" stop-color="#AC42FF"></stop>
<stop offset="1" stop-color="#780EFF"></stop>
</linearGradient>
<linearGradient id="paint1_linear_3748_113600" x1="12.5599" y1="6.05897" x2="4.48568" y2="19.6434" gradientUnits="userSpaceOnUse">
<stop stop-color="#CB35FF"></stop>
<stop offset="0.299315" stop-color="#AC42FF"></stop>
<stop offset="1" stop-color="#780EFF"></stop>
</linearGradient>
<linearGradient id="paint2_linear_3748_113600" x1="12.5599" y1="6.05897" x2="4.48568" y2="19.6434" gradientUnits="userSpaceOnUse">
<stop stop-color="#CB35FF"></stop>
<stop offset="0.299315" stop-color="#AC42FF"></stop>
<stop offset="1" stop-color="#780EFF"></stop>
</linearGradient>
<linearGradient id="paint3_linear_3748_113600" x1="12.5599" y1="6.05897" x2="4.48568" y2="19.6434" gradientUnits="userSpaceOnUse">
<stop stop-color="#CB35FF"></stop>
<stop offset="0.299315" stop-color="#AC42FF"></stop>
<stop offset="1" stop-color="#780EFF"></stop>
</linearGradient>
</defs>
</svg>