<svg width="115pt" height="93pt" viewBox="0 0 115 93" version="1.1" xmlns="http://www.w3.org/2000/svg">
<g id="#f0f0f0fe">
<path fill="#f0f0f0" opacity="1.00" d=" M 35.49 6.62 C 42.00 2.76 49.52 0.80 57.03 0.23 C 67.89 0.21 78.87 3.86 87.25 10.86 C 101.12 22.09 107.31 41.76 102.40 58.91 C 101.71 61.18 101.48 64.41 98.40 64.51 C 97.87 62.60 99.09 60.88 99.56 59.11 C 102.79 48.34 101.58 36.37 96.35 26.43 C 90.95 15.86 80.95 7.80 69.51 4.70 C 59.36 1.98 48.15 3.02 38.84 7.98 C 27.25 13.83 18.72 25.25 16.24 37.97 C 14.24 46.80 15.81 55.95 18.69 64.38 C 17.99 64.20 16.59 63.85 15.89 63.67 C 7.28 43.24 16.15 17.46 35.49 6.62 Z"></path>
<path fill="#f0f0f0" opacity="1.00" d=" M 60.81 10.43 C 61.98 10.70 63.13 10.66 64.27 10.31 L 64.70 13.05 C 65.20 12.32 66.20 10.86 66.70 10.13 L 66.23 12.18 C 68.14 11.96 69.49 10.58 70.97 9.54 C 70.53 10.25 69.66 11.66 69.22 12.37 C 70.04 12.51 71.67 12.78 72.48 12.91 C 71.43 13.40 69.32 14.37 68.26 14.86 C 69.03 14.74 70.55 14.50 71.31 14.38 C 72.41 14.43 73.52 14.42 74.63 14.37 C 74.61 14.69 74.59 15.34 74.57 15.67 C 71.77 15.08 69.28 16.88 66.64 17.49 C 66.12 19.01 64.84 19.78 63.46 20.42 C 61.42 23.43 59.95 26.97 60.21 30.68 C 59.16 33.39 58.00 36.87 59.26 39.66 C 60.79 39.69 59.26 36.76 59.72 35.69 C 60.44 34.41 60.76 33.01 60.62 31.53 L 61.46 31.45 C 61.48 30.12 61.50 28.79 61.52 27.46 L 62.65 27.47 C 62.53 26.99 62.29 26.04 62.17 25.56 L 63.43 25.37 C 63.43 24.97 63.42 24.16 63.41 23.76 C 64.85 23.58 65.53 22.23 66.50 21.36 C 67.52 17.26 72.03 18.58 75.14 18.79 C 76.68 18.69 77.92 20.06 77.46 21.57 C 78.06 21.45 79.25 21.20 79.84 21.08 C 79.76 21.63 79.59 22.72 79.51 23.27 C 81.66 24.44 80.19 27.73 80.54 29.73 C 79.23 29.81 77.92 29.80 76.61 29.62 L 76.71 31.65 L 74.68 31.31 C 74.57 30.60 74.35 29.17 74.24 28.45 C 73.83 28.53 73.00 28.69 72.59 28.77 C 72.34 27.75 72.08 26.73 71.80 25.71 C 71.77 26.65 71.72 28.52 71.69 29.46 L 70.64 29.50 L 70.40 30.38 C 68.12 30.54 68.56 33.12 68.11 34.69 C 67.76 34.34 67.06 33.64 66.72 33.29 C 66.27 34.51 65.38 35.37 64.05 35.86 C 65.01 37.04 66.47 36.59 67.78 36.45 L 67.66 37.94 C 68.28 36.85 68.76 34.22 70.58 35.74 L 70.40 34.11 L 71.48 32.50 C 71.42 33.35 71.30 35.07 71.24 35.92 C 73.05 35.44 74.92 35.18 76.80 35.19 C 76.69 35.80 76.46 37.02 76.35 37.63 C 78.52 36.90 80.76 37.49 82.93 37.83 C 82.84 38.31 82.66 39.26 82.57 39.74 C 83.07 39.57 84.05 39.22 84.54 39.05 C 84.61 40.27 84.75 42.70 84.82 43.92 L 83.19 43.26 C 83.70 44.77 83.85 46.30 83.64 47.86 C 83.15 47.69 82.16 47.37 81.67 47.21 C 81.59 47.90 81.43 49.29 81.35 49.99 C 79.22 49.90 79.59 47.88 79.44 46.37 L 78.56 46.42 C 78.53 45.63 78.47 44.07 78.44 43.29 C 77.96 43.40 76.99 43.62 76.51 43.73 C 76.53 43.16 76.56 42.02 76.58 41.45 C 75.73 41.45 74.01 41.45 73.16 41.46 C 73.30 42.01 73.57 43.12 73.71 43.67 C 72.38 43.37 71.02 43.49 69.69 43.65 C 69.68 43.27 69.67 42.50 69.66 42.12 C 69.11 42.22 68.00 42.42 67.44 42.52 C 67.69 43.04 68.19 44.10 68.44 44.62 L 69.44 44.48 L 69.55 45.51 C 70.70 45.56 71.85 45.67 73.00 45.81 L 72.22 47.78 C 73.10 47.63 74.84 47.35 75.72 47.21 L 75.25 48.42 C 76.43 48.87 78.05 49.30 78.26 50.81 C 78.91 53.50 81.14 55.92 80.69 58.81 C 80.22 58.30 79.30 57.28 78.84 56.77 C 78.87 58.25 78.28 59.30 77.09 59.93 C 77.21 59.13 77.44 57.53 77.55 56.73 C 75.37 56.53 73.82 54.79 71.70 54.44 C 72.50 52.29 69.72 52.63 68.57 52.49 C 68.36 51.44 67.93 50.50 67.30 49.68 C 65.18 50.36 65.52 47.31 63.59 47.35 C 63.51 44.84 65.83 43.59 68.08 44.63 C 67.45 43.95 66.20 42.58 65.57 41.89 L 65.34 43.68 C 64.39 43.66 62.50 43.62 61.55 43.60 C 62.88 45.08 63.19 47.45 59.88 44.99 C 58.49 50.52 61.54 56.27 60.53 61.98 C 60.71 63.81 59.81 64.46 57.83 63.93 C 57.92 58.56 58.01 53.17 57.27 47.84 C 55.82 46.78 54.40 45.57 52.61 45.14 C 52.26 44.59 51.55 43.51 51.19 42.97 C 50.54 44.31 49.24 46.98 48.59 48.32 C 48.60 46.23 48.64 44.15 48.69 42.07 C 48.04 43.52 46.97 43.93 45.48 43.30 C 45.40 43.96 45.26 45.28 45.18 45.94 L 44.24 45.76 C 45.07 43.78 44.50 42.82 42.30 43.22 L 42.60 44.85 C 41.26 44.60 39.92 44.34 38.58 44.08 C 38.53 45.28 38.47 46.48 38.42 47.69 L 37.25 47.20 C 37.31 48.00 37.42 49.61 37.47 50.41 C 35.91 50.68 33.96 50.63 34.63 48.45 C 33.75 48.32 31.99 48.07 31.12 47.94 C 31.50 47.91 32.28 47.84 32.66 47.81 L 32.48 46.12 L 33.83 43.57 L 31.45 44.84 C 31.47 43.86 31.50 42.88 31.53 41.90 C 31.84 41.55 32.47 40.86 32.78 40.51 L 33.51 40.61 C 33.62 39.73 33.83 37.98 33.94 37.11 C 34.06 37.45 34.30 38.13 34.42 38.47 C 35.58 38.41 37.90 38.29 39.05 38.23 C 38.52 37.70 37.46 36.65 36.93 36.12 C 37.88 36.30 39.80 36.66 40.76 36.83 L 40.37 34.44 C 40.97 34.98 42.16 36.06 42.76 36.60 C 42.82 35.82 42.94 34.27 43.00 33.50 C 43.07 34.08 43.23 35.24 43.30 35.83 C 44.12 35.73 45.75 35.53 46.56 35.44 C 47.66 36.76 48.76 38.48 50.74 37.52 L 50.32 39.22 C 51.55 38.85 52.78 38.45 54.02 38.11 C 52.92 37.77 50.70 37.09 49.60 36.74 C 49.94 36.24 50.64 35.23 50.98 34.72 C 49.29 33.44 47.12 33.56 45.13 33.56 C 45.32 33.12 45.71 32.23 45.90 31.79 C 45.75 31.17 45.45 29.93 45.30 29.32 C 44.83 29.42 43.88 29.62 43.41 29.72 C 43.33 28.71 43.16 26.68 43.08 25.66 C 42.94 26.21 42.67 27.29 42.54 27.83 C 42.05 27.74 41.08 27.56 40.60 27.47 C 40.62 28.05 40.66 29.21 40.68 29.79 C 39.81 29.67 38.08 29.41 37.22 29.28 L 37.72 30.90 C 36.45 30.81 35.39 30.21 34.51 29.32 C 34.43 26.60 34.50 23.88 34.49 21.16 C 35.70 20.49 36.97 19.85 37.85 18.74 C 38.34 18.48 39.33 17.96 39.82 17.71 C 40.78 17.97 42.70 18.49 43.65 18.76 L 43.30 17.29 C 44.91 16.94 46.30 17.74 47.55 18.64 L 47.54 19.52 L 48.68 19.52 C 48.59 19.95 48.40 20.81 48.30 21.23 C 48.85 21.26 49.96 21.33 50.51 21.36 C 50.63 22.98 50.09 24.84 51.22 26.23 C 51.24 17.88 52.82 26.73 53.49 28.64 L 54.36 28.44 C 55.01 32.64 56.78 36.68 55.45 41.02 L 54.50 38.53 C 53.72 38.92 52.95 39.32 52.18 39.72 C 52.52 42.97 54.67 45.27 57.33 46.89 C 57.11 45.84 56.69 43.74 56.48 42.69 C 58.47 41.59 57.58 38.99 57.69 37.15 C 57.84 34.12 56.78 31.30 56.22 28.38 C 54.89 25.83 53.48 23.36 52.17 20.82 C 55.56 21.53 54.31 18.07 54.18 16.13 C 54.83 16.33 56.13 16.72 56.78 16.92 L 55.28 14.95 L 57.48 15.70 C 57.50 15.23 57.56 14.28 57.58 13.81 C 57.84 14.43 58.36 15.66 58.62 16.28 C 59.17 15.59 60.28 14.20 60.84 13.51 C 61.29 13.48 62.19 13.41 62.65 13.37 C 62.85 12.81 63.27 11.68 63.48 11.12 C 62.72 11.23 61.19 11.46 60.43 11.58 L 60.81 10.43 M 63.10 37.36 C 62.36 38.25 61.77 39.24 61.33 40.33 C 59.25 40.77 58.50 42.20 59.08 44.61 C 60.78 43.49 62.73 42.58 63.99 40.92 C 64.40 39.69 65.03 37.70 63.10 37.36 Z"></path>
<path fill="#f0f0f0" opacity="1.00" d=" M 11.13 68.96 C 11.80 68.29 12.22 65.92 13.43 66.62 C 14.87 69.98 12.08 74.91 15.33 77.62 C 17.02 79.10 19.48 77.73 20.25 75.93 C 20.62 72.93 20.32 69.90 20.37 66.89 C 20.80 67.00 21.65 67.22 22.07 67.33 C 22.56 70.33 22.14 73.40 21.58 76.36 C 20.88 79.55 16.53 80.95 14.13 78.71 C 11.72 77.06 12.16 73.75 12.40 71.27 C 11.28 71.51 10.57 72.12 10.26 73.09 C 7.68 73.40 5.09 73.40 2.50 73.31 C 2.51 75.42 2.52 77.52 2.51 79.63 L 0.64 79.59 C 0.64 75.27 0.64 70.95 0.64 66.63 C 3.85 66.78 7.20 66.07 10.30 67.09 L 11.13 68.96 M 2.57 68.16 C 2.55 69.05 2.51 70.83 2.49 71.72 C 4.98 71.16 9.09 73.13 10.23 69.96 C 9.12 66.81 5.02 68.76 2.57 68.16 Z"></path>
<path fill="#f0f0f0" opacity="1.00" d=" M 53.22 66.57 C 59.45 66.67 65.70 66.53 71.93 66.63 C 74.50 66.55 76.71 70.25 74.47 72.08 C 74.34 71.50 74.09 70.35 73.96 69.77 C 72.18 67.23 68.76 68.47 66.17 68.25 C 66.20 69.66 66.21 71.08 66.22 72.49 C 67.78 72.46 69.35 72.41 70.92 72.32 C 71.77 72.92 72.18 73.85 72.54 74.80 C 73.91 76.12 74.80 77.82 75.57 79.54 C 73.55 80.22 73.14 78.03 72.21 76.79 C 70.95 74.81 68.55 73.47 66.18 74.11 C 66.20 75.93 66.22 77.75 66.23 79.57 L 64.57 79.56 C 64.61 75.78 64.60 72.00 64.63 68.22 C 62.95 68.23 61.27 68.24 59.59 68.24 C 59.62 72.01 59.60 75.78 59.65 79.55 L 58.03 79.51 C 58.13 75.77 58.11 72.03 58.11 68.29 C 56.48 68.25 54.86 68.24 53.23 68.23 C 53.23 67.81 53.22 66.99 53.22 66.57 Z"></path>
<path fill="#f0f0f0" opacity="1.00" d=" M 80.45 66.60 C 85.34 64.77 90.95 69.97 89.22 74.98 C 87.97 80.03 80.61 81.65 77.39 77.55 C 73.88 74.19 76.05 67.93 80.45 66.60 M 81.09 68.07 C 77.88 68.87 76.01 73.06 78.04 75.84 C 80.22 79.52 86.39 78.85 87.67 74.75 C 89.19 70.90 84.92 66.68 81.09 68.07 Z"></path>
<path fill="#f0f0f0" opacity="1.00" d=" M 101.59 70.91 C 102.37 70.21 101.08 65.37 103.37 66.71 C 104.30 70.47 102.11 75.03 104.64 78.25 C 106.11 76.50 107.20 74.49 108.45 72.61 C 107.09 70.51 105.35 68.49 105.09 65.90 C 106.99 67.16 108.28 69.08 109.38 71.04 C 110.58 69.15 111.51 66.73 113.91 66.11 C 112.92 68.48 111.52 70.63 110.22 72.82 C 111.83 74.90 112.95 77.38 115.00 79.09 L 115.00 79.33 C 111.70 80.72 111.05 75.81 109.35 74.03 C 108.17 75.87 106.97 77.71 105.82 79.57 C 104.49 79.62 103.15 79.63 101.82 79.58 C 101.86 76.36 101.85 73.14 101.98 69.92 C 100.38 74.35 95.84 73.29 92.21 73.34 C 92.22 75.43 92.24 77.52 92.25 79.61 L 90.56 79.52 C 90.73 75.22 90.71 70.92 90.63 66.62 C 94.58 66.95 101.22 64.74 101.59 70.91 M 92.20 68.24 C 92.21 69.40 92.22 70.55 92.23 71.71 C 94.59 71.28 99.79 73.18 99.65 69.40 C 98.01 67.13 94.60 68.62 92.20 68.24 Z"></path>
<path fill="#f0f0f0" opacity="1.00" d=" M 22.51 66.61 C 25.31 66.69 28.16 66.28 30.91 66.87 C 34.15 68.36 33.30 73.56 29.83 74.13 C 31.30 75.80 32.82 77.67 32.77 80.03 C 29.91 78.08 28.28 72.17 23.70 74.57 C 23.97 76.21 24.14 77.86 24.21 79.51 L 22.41 79.56 C 22.27 75.24 22.85 70.92 22.51 66.61 M 23.87 68.36 C 23.87 69.36 23.88 71.37 23.88 72.37 C 26.41 72.20 31.37 73.76 31.61 69.91 C 30.28 66.95 26.37 68.58 23.87 68.36 Z"></path>
<path fill="#f0f0f0" opacity="1.00" d=" M 33.80 66.60 C 37.11 66.60 40.43 66.58 43.74 66.57 L 43.85 68.23 C 40.99 68.21 38.13 68.24 35.27 68.24 C 35.28 70.07 35.28 71.91 35.27 73.74 C 37.67 73.75 40.07 73.75 42.47 73.73 C 42.50 74.15 42.56 75.00 42.59 75.42 C 40.11 75.39 37.63 75.41 35.15 75.45 C 33.84 78.96 38.19 78.02 40.04 78.13 C 41.25 78.06 42.45 77.98 43.66 77.87 C 43.70 78.32 43.77 79.21 43.81 79.66 C 40.43 79.66 37.05 79.66 33.67 79.55 C 33.93 75.23 33.37 70.91 33.80 66.60 Z"></path>
<path fill="#f0f0f0" opacity="1.00" d=" M 80.72 73.05 C 81.42 70.67 83.68 71.44 84.75 72.98 C 83.95 74.79 81.20 75.56 80.72 73.05 Z"></path>
<path fill="#f0f0f0" opacity="1.00" d=" M 29.36 82.41 C 31.42 82.47 33.75 82.07 35.47 83.51 C 41.36 87.59 48.44 89.30 55.42 90.39 C 56.49 87.83 57.07 85.11 57.47 82.37 C 58.40 82.41 59.33 82.45 60.26 82.49 C 60.36 85.10 60.53 87.71 60.78 90.31 C 68.07 89.55 75.37 87.55 81.46 83.35 C 83.16 82.04 85.41 82.51 87.39 82.49 C 80.05 88.47 70.93 92.03 61.54 93.00 L 54.87 93.00 C 45.62 91.89 36.49 88.51 29.36 82.41 Z"></path>
</g>
</svg>